# xmcd CD database file
#
# Track frame offsets:
#	150
#	11775
#	25368
#	38919
#	51033
#	61678
#	75961
#	88263
#	99466
#	113959
#	131932
#	146201
#	160179
#	173427
#	184150
#	195958
#	209961
#	222944
#	236833
#	250019
#
# Disc length: 3477 seconds
#
# Revision: 2
# Processed by: cddbd v1.5.1PL0 Copyright (c) Steve Scherf et al.
# Submitted via: CDex 1.50
#
DISCID=1b0d9314
DTITLE=PATTI PAGE - STAR☆BOX PATTI PAGE
DYEAR=2003
DGENRE=Country
TTITLE0=Hush,Hush,Sweet Chariotte ふるえて眠れ
TTITLE1=Mockin'Bird Hill モッキンバード・ヒル
TTITLE2=I Went To Your Wedding 涙のワルツ
TTITLE3=(How Much Is That)Doggie In The Window ワン・ワン・ワルツ
TTITLE4=Changing Partners チェンジング・パートナーズ
TTITLE5=Old Cape Cod オールド・ケイプ・コッド
TTITLE6=Love Lettters ラヴ・レター
TTITLE7=Can't Help Falling In Love 好きにならずにいられない
TTITLE8=Try To Remember トライ・トゥ・リメンバー
TTITLE9=Scarlet Ribbons(For Her Hair) スカーレット・リボンズ
TTITLE10=Danny Boy ダニー・ボーイ
TTITLE11=Croce Dio Oro(Cross Of Gold) クロス・オブ・ゴールド
TTITLE12=The End Of The World この世は果てても
TTITLE13=Say Wonderful Things すてきな言葉を
TTITLE14=Gentle On My Mind ジェントル・オン・マイ・マインド
TTITLE15=Litttle Green Apples リトル・グリーン・アップルズ
TTITLE16=Something サムシング
TTITLE17=I'll Never Fall In Love Again 恋よさようなら
TTITLE18=Allegheny Moon アレゲニー・ムーン
TTITLE19=Tennessee Waltz テネシー・ワルツ
EXTD=YEAR: 2003
EXTT0=
EXTT1=
EXTT2=
EXTT3=
EXTT4=
EXTT5=
EXTT6=
EXTT7=
EXTT8=
EXTT9=
EXTT10=
EXTT11=
EXTT12=
EXTT13=
EXTT14=
EXTT15=
EXTT16=
EXTT17=
EXTT18=
EXTT19=
PLAYORDER=
